<?xml version="1.0" encoding="utf-8"?>
<svg viewBox="0 0 500 500" fill="#dd4f43" xmlns="http://www.w3.org/2000/svg"><ellipse cx="10" cy="10" rx="10" ry="10"/><ellipse cx="90" cy="10" rx="10" ry="10"/><ellipse cx="170" cy="10" rx="10" ry="10"/><ellipse cx="250" cy="10" rx="10" ry="10"/><ellipse cx="10" cy="90" rx="10" ry="10"/><ellipse cx="90" cy="90" rx="10" ry="10"/><ellipse cx="170" cy="90" rx="10" ry="10"/><ellipse cx="250" cy="90" rx="10" ry="10"/><ellipse cx="10" cy="170" rx="10" ry="10"/><ellipse cx="90" cy="170" rx="10" ry="10"/><ellipse cx="170" cy="170" rx="10" ry="10"/><ellipse cx="250" cy="170" rx="10" ry="10"/><ellipse cx="10" cy="250" rx="10" ry="10"/><ellipse cx="90" cy="250" rx="10" ry="10"/><ellipse cx="170" cy="250" rx="10" ry="10"/><ellipse cx="250" cy="250" rx="10" ry="10"/><ellipse cx="10" cy="330" rx="10" ry="10"/><ellipse cx="90" cy="330" rx="10" ry="10"/><ellipse cx="170" cy="330" rx="10" ry="10"/><ellipse cx="250" cy="330" rx="10" ry="10"/><ellipse cx="10" cy="410" rx="10" ry="10"/><ellipse cx="90" cy="410" rx="10" ry="10"/><ellipse cx="170" cy="410" rx="10" ry="10"/><ellipse cx="250" cy="410" rx="10" ry="10"/><ellipse cx="330" cy="10" rx="10" ry="10"/><ellipse cx="410" cy="10" rx="10" ry="10"/><ellipse cx="490" cy="10" rx="10" ry="10"/><ellipse cx="330" cy="90" rx="10" ry="10"/><ellipse cx="410" cy="90" rx="10" ry="10"/><ellipse cx="490" cy="90" rx="10" ry="10"/><ellipse cx="330" cy="170" rx="10" ry="10"/><ellipse cx="410" cy="170" rx="10" ry="10"/><ellipse cx="490" cy="170" rx="10" ry="10"/><ellipse cx="330" cy="250" rx="10" ry="10"/><ellipse cx="410" cy="250" rx="10" ry="10"/><ellipse cx="490" cy="250" rx="10" ry="10"/><ellipse cx="330" cy="330" rx="10" ry="10"/><ellipse cx="410" cy="330" rx="10" ry="10"/><ellipse cx="490" cy="330" rx="10" ry="10"/><ellipse cx="330" cy="410" rx="10" ry="10"/><ellipse cx="410" cy="410" rx="10" ry="10"/><ellipse cx="490" cy="410" rx="10" ry="10"/><ellipse cx="10" cy="490" rx="10" ry="10"/><ellipse cx="90" cy="490" rx="10" ry="10"/><ellipse cx="170" cy="490" rx="10" ry="10"/><ellipse cx="250" cy="490" rx="10" ry="10"/><ellipse cx="330" cy="490" rx="10" ry="10"/><ellipse cx="410" cy="490" rx="10" ry="10"/><ellipse cx="490" cy="490" rx="10" ry="10"/></svg>